<?xml version="1.0" encoding="utf-8"?>
<!-- Generator: Adobe Illustrator 12.0.0, SVG Export Plug-In . SVG Version: 6.00 Build 51448)  -->
<!DOCTYPE svg PUBLIC "-//W3C//DTD SVG 1.1//EN" "http://www.w3.org/Graphics/SVG/1.1/DTD/svg11.dtd">
<svg  version="1.1" id="Ebene_1" xmlns:sketch="http://www.bohemiancoding.com/sketch/ns"
	 xmlns="http://www.w3.org/2000/svg" xmlns:xlink="http://www.w3.org/1999/xlink" width="200" height="200" viewBox="-85.11 -84.45 200 200"
	 overflow="visible" enable-background="new -85.11 -84.45 200 200" xml:space="preserve">
<g>
	<g id="Page-1">
		<g id="icon-61-warning">
			<path id="warning" fill="none" stroke="#CC0000" stroke-width="20" d="M4.422-50.26c5.784-9.356,15.178-9.337,20.951,0
				L97.077,65.749c7.72,12.493,2.09,22.622-12.557,22.622H-54.725c-14.66,0-20.305-10.09-12.557-22.622L4.422-50.26L4.422-50.26z"/>
		</g>
	</g>
	<g id="icon-61-warning_1_">
		<path id="warning_1_" fill="#CC0000" d="M14.889-11.886c-3.675,0-6.648,3.014-6.648,6.63v39.93c0,3.662,2.951,6.628,6.648,6.628
			c3.673,0,6.648-3.012,6.648-6.628v-39.93C21.538-8.919,18.588-11.886,14.889-11.886L14.889-11.886z M14.889,67.895
			c3.673,0,6.648-2.974,6.648-6.648s-2.976-6.647-6.648-6.647c-3.675,0-6.648,2.973-6.648,6.647
			C8.241,64.922,11.215,67.895,14.889,67.895L14.889,67.895z"/>
	</g>
</g>
</svg>
